<?xml version="1.0" encoding="utf-8" standalone="no"?>
<!DOCTYPE svg PUBLIC "-//W3C//DTD SVG 1.1//EN"
  "http://www.w3.org/Graphics/SVG/1.1/DTD/svg11.dtd">
<svg xmlns:xlink="http://www.w3.org/1999/xlink" width="316.8pt" height="86.4pt" viewBox="0 0 316.8 86.4" xmlns="http://www.w3.org/2000/svg" version="1.1">
 <metadata>
  <rdf:RDF xmlns:dc="http://purl.org/dc/elements/1.1/" xmlns:cc="http://creativecommons.org/ns#" xmlns:rdf="http://www.w3.org/1999/02/22-rdf-syntax-ns#">
   <cc:Work>
    <dc:type rdf:resource="http://purl.org/dc/dcmitype/StillImage"/>
    <dc:date>2026-09-24T11:56:44.704001</dc:date>
    <dc:format>image/svg+xml</dc:format>
    <dc:creator>
     <cc:Agent>
      <dc:title>Matplotlib v3.5.3, https://matplotlib.org/</dc:title>
     </cc:Agent>
    </dc:creator>
   </cc:Work>
  </rdf:RDF>
 </metadata>
 <defs>
  <style type="text/css">*{stroke-linejoin: round; stroke-linecap: butt}</style>
 </defs>
 <g id="figure_1">
  <g id="patch_1">
   <path d="M 0 86.4 
L 316.8 86.4 
L 316.8 0 
L 0 0 
L 0 86.4 
z
" style="fill: none"/>
  </g>
  <g id="axes_1">
   <g id="patch_2">
    <path d="M 26.136 77.9904 
L 290.664 77.9904 
Q 303.864 77.9904 303.864 66.4704 
L 303.864 19.9296 
Q 303.864 8.4096 290.664 8.4096 
L 26.136 8.4096 
Q 12.936 8.4096 12.936 19.9296 
L 12.936 66.4704 
Q 12.936 77.9904 26.136 77.9904 
z
" clip-path="url(#p2087aa062c)" style="fill: #f8fafc; stroke: #687b91; stroke-width: 1.1; stroke-linejoin: miter"/>
   </g>
   <g id="patch_3">
    <path d="M 24.816 65.3184 
L 53.3841 65.3184 
L 53.3841 21.0816 
L 24.816 21.0816 
z
" clip-path="url(#p2087aa062c)" style="fill: #b6c1cd"/>
   </g>
   <g id="patch_4">
    <path d="M 58.9017 65.3184 
L 87.4698 65.3184 
L 87.4698 21.0816 
L 58.9017 21.0816 
z
" clip-path="url(#p2087aa062c)" style="fill: #8294a8"/>
   </g>
   <g id="patch_5">
    <path d="M 92.9874 65.3184 
L 121.5555 65.3184 
L 121.5555 21.0816 
L 92.9874 21.0816 
z
" clip-path="url(#p2087aa062c)" style="fill: #a5b3c2"/>
   </g>
   <g id="patch_6">
    <path d="M 127.0731 65.3184 
L 155.6412 65.3184 
L 155.6412 21.0816 
L 127.0731 21.0816 
z
" clip-path="url(#p2087aa062c)" style="fill: #6f839b"/>
   </g>
   <g id="patch_7">
    <path d="M 161.1588 65.3184 
L 189.7269 65.3184 
L 189.7269 21.0816 
L 161.1588 21.0816 
z
" clip-path="url(#p2087aa062c)" style="fill: #96a7b9"/>
   </g>
   <g id="patch_8">
    <path d="M 229.3302 65.3184 
L 257.8983 65.3184 
L 257.8983 21.0816 
L 229.3302 21.0816 
z
" clip-path="url(#p2087aa062c)" style="fill: #b6c1cd"/>
   </g>
   <g id="patch_9">
    <path d="M 263.4159 65.3184 
L 291.984 65.3184 
L 291.984 21.0816 
L 263.4159 21.0816 
z
" clip-path="url(#p2087aa062c)" style="fill: #8294a8"/>
   </g>
   <g id="text_1">
    <text style="fill: #53667b; font: 13px 'DejaVu Sans'; text-anchor: middle" x="209.52855" y="46.787187" transform="rotate(-0, 209.52855, 46.787187)">···</text>
   </g>
  </g>
 </g>
 <defs>
  <clipPath id="p2087aa062c">
   <rect x="0" y="0" width="316.8" height="86.4"/>
  </clipPath>
 </defs>
</svg>
